<?xml version="1.0" encoding="utf-8"?>
<!-- Generator: Adobe Illustrator 24.0.1, SVG Export Plug-In . SVG Version: 6.00 Build 0)  -->
<svg version="1.1" id="Layer_1" xmlns="http://www.w3.org/2000/svg" xmlns:xlink="http://www.w3.org/1999/xlink" x="0px" y="0px"
	 viewBox="0 0 195.2 70.4" style="enable-background:new 0 0 195.2 70.4;" xml:space="preserve">
<style type="text/css">
	.st0{enable-background:new    ;}
	.st1{fill:#FFFFFF;}
</style>
<title>express-logo-white</title>
<g id="Layer_2_1_">
	<g id="Layer_1-2">
		<g class="st0">
			<path class="st1" d="M4.2,36.3v0.4c0,1.8,0.2,3.5,0.7,5.2c0.5,1.6,1.2,3.1,2.1,4.3c0.9,1.2,2.1,2.2,3.5,2.9
				c1.4,0.7,3.1,1.1,5,1.1c3.1,0,5.5-0.8,7.3-2.4c1.8-1.6,3-3.9,3.7-6.8h2.3c-0.7,3.6-2.2,6.4-4.4,8.3c-2.3,1.9-5.2,2.9-9,2.9
				c-2.3,0-4.3-0.4-6-1.2c-1.7-0.8-3.1-1.9-4.3-3.4c-1.1-1.4-2-3.1-2.6-5c-0.6-1.9-0.8-4-0.8-6.3c0-2.2,0.3-4.2,0.9-6.2
				c0.6-2,1.4-3.7,2.6-5.2c1.2-1.5,2.6-2.7,4.4-3.6s3.8-1.3,6.1-1.3c2.2,0,4.1,0.4,5.7,1.2c1.7,0.8,3,1.9,4.2,3.3
				c1.1,1.4,2,3,2.6,4.8c0.6,1.8,0.9,3.8,0.9,5.8c0,0.2,0,0.4,0,0.7c0,0.3,0,0.5,0,0.6H4.2z M26.9,34.3c-0.1-1.7-0.4-3.3-0.8-4.8
				c-0.5-1.5-1.2-2.8-2.1-4c-0.9-1.1-2.1-2-3.4-2.7c-1.3-0.7-2.9-1-4.6-1c-1.8,0-3.5,0.4-4.9,1c-1.4,0.7-2.6,1.6-3.5,2.8
				c-1,1.1-1.7,2.5-2.2,4c-0.5,1.5-0.8,3.1-1,4.7H26.9z"/>
		</g>
		<g class="st0">
			<path class="st1" d="M42.2,35.2L30.9,20.6h3.2l9.7,12.9l9.7-12.9h2.9L45.2,35.2l12.2,16.2h-3.1L43.7,37L32.9,51.4h-2.9L42.2,35.2
				z"/>
			<path class="st1" d="M63.2,27.7h0.1c0.2-0.8,0.6-1.6,1.2-2.5c0.6-0.9,1.3-1.8,2.2-2.5s2-1.4,3.3-2c1.3-0.5,2.8-0.8,4.5-0.8
				c2.4,0,4.4,0.4,6.2,1.3c1.7,0.9,3.2,2.1,4.3,3.5c1.1,1.5,2,3.2,2.6,5.2c0.6,2,0.8,4,0.8,6.2c0,2.4-0.3,4.5-0.8,6.5
				c-0.6,2-1.4,3.7-2.6,5.1c-1.1,1.4-2.6,2.5-4.3,3.3c-1.7,0.8-3.8,1.2-6.2,1.2c-2.6,0-4.9-0.6-6.9-1.7s-3.5-2.9-4.4-5.5h-0.1v17.5
				H61V20.6h2.2V27.7z M74.5,50.2c2,0,3.7-0.4,5.2-1.1c1.5-0.8,2.7-1.8,3.6-3.1c0.9-1.3,1.6-2.8,2.1-4.5c0.5-1.7,0.7-3.5,0.7-5.4
				c0-1.8-0.2-3.5-0.7-5.2c-0.4-1.7-1.1-3.2-2-4.6c-0.9-1.3-2.1-2.4-3.6-3.2c-1.5-0.8-3.2-1.2-5.3-1.2c-2,0-3.8,0.4-5.2,1.2
				c-1.4,0.8-2.6,1.9-3.5,3.2c-0.9,1.3-1.6,2.8-2,4.5c-0.4,1.7-0.6,3.5-0.6,5.3c0,1.8,0.2,3.6,0.5,5.3c0.4,1.7,1,3.2,1.8,4.5
				s2,2.3,3.5,3.1C70.6,49.8,72.4,50.2,74.5,50.2z"/>
		</g>
		<g class="st0">
			<path class="st1" d="M96.1,27.4h0.2c0.3-1,0.8-1.9,1.5-2.8c0.7-0.9,1.6-1.6,2.7-2.3s2.2-1.1,3.5-1.5c1.3-0.3,2.6-0.5,4.1-0.4v2.3
				c-1.2-0.2-2.6,0-4.1,0.4c-1.5,0.4-3,1.3-4.4,2.6c-0.6,0.6-1.1,1.2-1.5,1.7c-0.4,0.6-0.8,1.2-1,1.9c-0.3,0.7-0.5,1.4-0.7,2.3
				c-0.2,0.8-0.3,1.8-0.3,3v16.9h-2.3V20.6h2.3V27.4z"/>
		</g>
		<g class="st0">
			<path class="st1" d="M110.6,36.3v0.4c0,1.8,0.2,3.5,0.7,5.2c0.5,1.6,1.2,3.1,2.1,4.3c0.9,1.2,2.1,2.2,3.5,2.9
				c1.4,0.7,3.1,1.1,5,1.1c3.1,0,5.5-0.8,7.3-2.4c1.8-1.6,3-3.9,3.7-6.8h2.3c-0.7,3.6-2.2,6.4-4.4,8.3s-5.2,2.9-9,2.9
				c-2.3,0-4.3-0.4-6-1.2c-1.7-0.8-3.1-1.9-4.3-3.4c-1.1-1.4-2-3.1-2.6-5c-0.6-1.9-0.8-4-0.8-6.3c0-2.2,0.3-4.2,0.9-6.2
				c0.6-2,1.4-3.7,2.6-5.2c1.2-1.5,2.6-2.7,4.3-3.6s3.8-1.3,6.2-1.3c2.2,0,4.1,0.4,5.7,1.2c1.7,0.8,3,1.9,4.2,3.3s2,3,2.6,4.8
				c0.6,1.8,0.9,3.8,0.9,5.8c0,0.2,0,0.4,0,0.7c0,0.3,0,0.5,0,0.6H110.6z M133.3,34.3c-0.1-1.7-0.4-3.3-0.8-4.8s-1.2-2.8-2.1-4
				s-2.1-2-3.4-2.7c-1.3-0.7-2.9-1-4.6-1c-1.8,0-3.5,0.4-4.9,1c-1.4,0.7-2.6,1.6-3.5,2.8c-1,1.1-1.7,2.5-2.2,4
				c-0.5,1.5-0.8,3.1-1,4.7H133.3z"/>
			<path class="st1" d="M142,41.2c0.1,1.4,0.4,2.7,1,3.8c0.6,1.1,1.3,2,2.2,2.8c0.9,0.8,2,1.4,3.2,1.8c1.2,0.4,2.5,0.6,3.9,0.6
				c1,0,2.1-0.1,3.2-0.3c1.1-0.2,2.2-0.5,3.2-1c1-0.5,1.8-1.1,2.4-2c0.6-0.9,1-2,1-3.3c0-1.7-0.5-3-1.6-3.9c-1-0.9-2.4-1.6-3.9-2
				c-1.6-0.5-3.3-0.9-5.1-1.2s-3.5-0.8-5.1-1.3c-1.6-0.6-2.9-1.4-3.9-2.5s-1.6-2.7-1.6-4.8c0-1.5,0.3-2.8,1-3.8
				c0.7-1,1.5-1.8,2.6-2.4c1.1-0.6,2.2-1,3.6-1.3c1.3-0.3,2.6-0.4,4-0.4c1.6,0,3.1,0.2,4.5,0.5c1.4,0.4,2.6,0.9,3.6,1.7
				c1,0.8,1.8,1.8,2.4,3.1c0.6,1.2,0.9,2.7,0.9,4.5H161c0-1.4-0.2-2.6-0.7-3.6c-0.5-1-1.1-1.8-1.9-2.4c-0.8-0.6-1.8-1.1-2.9-1.4
				c-1.1-0.3-2.3-0.5-3.6-0.5c-1,0-2.1,0.1-3.2,0.3c-1.1,0.2-2,0.5-2.8,1c-0.8,0.5-1.5,1.1-2.1,1.9c-0.5,0.8-0.8,1.7-0.8,2.8
				c0,1.2,0.3,2.2,0.9,3c0.6,0.8,1.4,1.4,2.4,1.8c1,0.5,2.1,0.8,3.3,1.1c1.2,0.3,2.5,0.6,3.7,0.8c1.5,0.3,2.9,0.6,4.3,1
				c1.3,0.4,2.5,0.9,3.5,1.6c1,0.7,1.8,1.5,2.3,2.5c0.6,1,0.8,2.4,0.8,4c0,1.7-0.4,3.1-1.1,4.1c-0.8,1.1-1.7,2-2.9,2.6
				c-1.2,0.7-2.5,1.1-3.9,1.4c-1.4,0.3-2.8,0.4-4.2,0.4c-1.8,0-3.4-0.2-4.9-0.7c-1.5-0.5-2.8-1.2-3.9-2.1c-1.1-0.9-2-2.1-2.6-3.4
				c-0.6-1.4-1-2.9-1-4.7H142z"/>
			<path class="st1" d="M170.8,41.2c0.1,1.4,0.4,2.7,1,3.8c0.6,1.1,1.3,2,2.2,2.8c0.9,0.8,2,1.4,3.2,1.8c1.2,0.4,2.5,0.6,3.9,0.6
				c1,0,2.1-0.1,3.2-0.3c1.1-0.2,2.2-0.5,3.2-1c1-0.5,1.8-1.1,2.4-2c0.6-0.9,1-2,1-3.3c0-1.7-0.5-3-1.6-3.9c-1-0.9-2.4-1.6-3.9-2
				c-1.6-0.5-3.3-0.9-5.1-1.2s-3.5-0.8-5.1-1.3c-1.6-0.6-2.9-1.4-3.9-2.5s-1.6-2.7-1.6-4.8c0-1.5,0.3-2.8,1-3.8
				c0.7-1,1.5-1.8,2.6-2.4c1.1-0.6,2.2-1,3.6-1.3c1.3-0.3,2.6-0.4,4-0.4c1.6,0,3.1,0.2,4.5,0.5c1.4,0.4,2.6,0.9,3.6,1.7
				c1,0.8,1.8,1.8,2.4,3.1c0.6,1.2,0.9,2.7,0.9,4.5h-2.3c0-1.4-0.2-2.6-0.7-3.6c-0.5-1-1.1-1.8-1.9-2.4c-0.8-0.6-1.8-1.1-2.9-1.4
				c-1.1-0.3-2.3-0.5-3.6-0.5c-1,0-2.1,0.1-3.2,0.3c-1.1,0.2-2,0.5-2.8,1c-0.8,0.5-1.5,1.1-2.1,1.9c-0.5,0.8-0.8,1.7-0.8,2.8
				c0,1.2,0.3,2.2,0.9,3c0.6,0.8,1.4,1.4,2.4,1.8c1,0.5,2.1,0.8,3.3,1.1c1.2,0.3,2.5,0.6,3.7,0.8c1.5,0.3,2.9,0.6,4.3,1
				c1.3,0.4,2.5,0.9,3.5,1.6c1,0.7,1.8,1.5,2.3,2.5c0.6,1,0.8,2.4,0.8,4c0,1.7-0.4,3.1-1.1,4.1c-0.8,1.1-1.7,2-2.9,2.6
				c-1.2,0.7-2.5,1.1-3.9,1.4c-1.4,0.3-2.8,0.4-4.2,0.4c-1.8,0-3.4-0.2-4.9-0.7c-1.5-0.5-2.8-1.2-3.9-2.1c-1.1-0.9-2-2.1-2.6-3.4
				c-0.6-1.4-1-2.9-1-4.7H170.8z"/>
		</g>
	</g>
</g>
</svg>
